<svg width="264" height="264" viewBox="0 0 264 264" fill="none" xmlns="http://www.w3.org/2000/svg">
<g clip-path="url(#clip0)">
<path d="M121.222 145.25C121.175 145.25 121.145 145.248 121.135 145.248L115.49 145.248V144.345H121.155C121.286 144.35 123.963 144.432 126.428 141.184C130.103 136.343 133.12 124.36 126.629 94.7604C117.9 54.9602 125.18 19.7989 128.715 6.52903C128.889 5.87252 128.921 5.18103 128.806 4.50919C128.692 3.83736 128.435 3.20359 128.056 2.65796C127.678 2.11234 127.187 1.6698 126.624 1.36532C126.061 1.06084 125.44 0.902759 124.81 0.903571H40.5088C39.8678 0.904504 39.2361 1.06948 38.665 1.38512C38.0938 1.70076 37.5992 2.15816 37.2213 2.7202C35.7238 4.95662 33.6686 9.25299 32.3826 17.0215L31.5635 16.8618C32.8774 8.92451 34.9994 4.50175 36.5481 2.189C37.0033 1.51177 37.5991 0.960612 38.2873 0.580271C38.9755 0.19993 39.7365 0.00112531 40.5087 2.45862e-06H124.81C125.569 -0.000789761 126.317 0.189881 126.996 0.55695C127.675 0.924019 128.265 1.45743 128.722 2.11504C129.178 2.77265 129.487 3.53644 129.625 4.34607C129.762 5.15569 129.725 5.98898 129.515 6.78008C125.998 19.9811 118.755 54.9599 127.438 94.5513C134.021 124.567 130.857 136.81 127.043 141.795C124.527 145.083 121.755 145.25 121.222 145.25Z" fill="#E6E6E6"/>
<path d="M106.032 161.74C105.985 161.74 105.955 161.739 105.945 161.738L100.3 161.739V160.835H105.965C106.097 160.84 108.773 160.922 111.238 157.674C114.913 152.833 117.93 140.85 111.439 111.251C102.71 71.4504 109.99 36.2891 113.525 23.0193C113.699 22.3628 113.731 21.6713 113.616 20.9994C113.502 20.3276 113.245 19.6938 112.867 19.1482C112.488 18.6026 111.997 18.16 111.434 17.8556C110.871 17.5511 110.25 17.393 109.621 17.3938H25.3189C24.6779 17.3947 24.0463 17.5597 23.4751 17.8754C22.9039 18.191 22.4093 18.6484 22.0314 19.2104C20.5339 21.4469 18.4787 25.7432 17.1927 33.5118L16.3735 33.3521C17.6875 25.4147 19.8095 20.992 21.3582 18.6792C21.8134 18.002 22.4092 17.4508 23.0974 17.0705C23.7856 16.6902 24.5467 16.4914 25.3189 16.4902H109.621C110.379 16.4894 111.127 16.6801 111.806 17.0472C112.485 17.4143 113.076 17.9477 113.532 18.6053C113.988 19.2629 114.297 20.0267 114.435 20.8363C114.573 21.6459 114.535 22.4792 114.325 23.2703C110.808 36.4713 103.565 71.4502 112.249 111.042C118.831 141.057 115.667 153.3 111.853 158.285C109.337 161.573 106.566 161.74 106.032 161.74Z" fill="#CCCCCC"/>
<path d="M90.843 178.23C90.7959 178.23 90.7662 178.229 90.7558 178.228L7.75351 178.229C6.95438 178.23 6.16721 178.018 5.46086 177.612C4.75452 177.207 4.15053 176.619 3.70177 175.901C3.253 175.183 2.97313 174.357 2.88665 173.495C2.80017 172.632 2.90971 171.76 3.20568 170.954C6.21728 162.785 10.2723 143.188 3.59333 103.711C-4.29329 57.0955 2.76734 40.2487 6.16902 35.1692C6.6242 34.492 7.22006 33.9408 7.90824 33.5605C8.59643 33.1801 9.35753 32.9813 10.1298 32.9802H94.4314C95.1897 32.9794 95.9379 33.1701 96.6167 33.5372C97.2955 33.9042 97.8864 34.4377 98.3427 35.0953C98.799 35.7529 99.1081 36.5167 99.2458 37.3263C99.3834 38.1359 99.3457 38.9692 99.1357 39.7603C95.6188 52.9613 88.3763 87.9402 97.0593 127.532C103.642 157.547 100.478 169.79 96.6637 174.775C94.1481 178.063 91.3764 178.23 90.843 178.23ZM10.1298 33.8838C9.48881 33.8847 8.85711 34.0497 8.2859 34.3653C7.71469 34.681 7.22008 35.1384 6.84222 35.7004C3.50362 40.6857 -3.41649 57.2764 4.4119 103.547C10.7923 141.26 7.69782 161.201 3.97833 171.29C3.72765 171.955 3.63356 172.678 3.70455 173.393C3.77553 174.108 4.00936 174.793 4.38493 175.385C4.75733 175.983 5.2592 176.472 5.84652 176.811C6.43384 177.149 7.08864 177.326 7.7535 177.325H90.7762C90.9073 177.332 93.5835 177.412 96.0492 174.164C99.7237 169.323 102.741 157.34 96.2496 127.741C87.5208 87.9404 94.801 52.7791 98.3361 39.5093C98.5103 38.8527 98.5414 38.1613 98.4271 37.4894C98.3128 36.8176 98.0562 36.1838 97.6774 35.6382C97.2987 35.0926 96.8083 34.65 96.2449 34.3455C95.6815 34.0411 95.0607 33.883 94.4314 33.8838H10.1298Z" fill="#3F3D56"/>
<path d="M80.0927 73.6409H13.9249C13.0419 73.6409 12.1951 73.2601 11.5708 72.5823C10.9465 71.9045 10.5957 70.9852 10.5957 70.0266C10.5957 69.0681 10.9465 68.1488 11.5708 67.4709C12.1951 66.7931 13.0419 66.4124 13.9249 66.4124H80.0927C80.9756 66.4124 81.8224 66.7931 82.4468 67.4709C83.0711 68.1488 83.4219 69.0681 83.4219 70.0266C83.4219 70.9852 83.0711 71.9045 82.4468 72.5823C81.8224 73.2601 80.9756 73.6409 80.0927 73.6409Z" fill="#63A1FF"/>
<path d="M80.0927 89.0015H13.9249C13.0419 89.0015 12.1951 88.6207 11.5708 87.9429C10.9465 87.2651 10.5957 86.3458 10.5957 85.3872C10.5957 84.4287 10.9465 83.5094 11.5708 82.8315C12.1951 82.1537 13.0419 81.7729 13.9249 81.7729H80.0927C80.9756 81.7729 81.8224 82.1537 82.4468 82.8315C83.0711 83.5094 83.4219 84.4287 83.4219 85.3872C83.4219 86.3458 83.0711 87.2651 82.4468 87.9429C81.8224 88.6207 80.9756 89.0015 80.0927 89.0015Z" fill="#CCCCCC"/>
<path d="M80.0927 104.362H13.9249C13.0419 104.362 12.1951 103.981 11.5708 103.303C10.9465 102.626 10.5957 101.706 10.5957 100.748C10.5957 99.7893 10.9465 98.8699 11.5708 98.1921C12.1951 97.5143 13.0419 97.1335 13.9249 97.1335H80.0927C80.9756 97.1335 81.8224 97.5143 82.4468 98.1921C83.0711 98.8699 83.4219 99.7893 83.4219 100.748C83.4219 101.706 83.0711 102.626 82.4468 103.303C81.8224 103.981 80.9756 104.362 80.0927 104.362Z" fill="#CCCCCC"/>
<path d="M85.0863 119.723H18.9186C18.0356 119.723 17.1888 119.342 16.5645 118.664C15.9401 117.987 15.5894 117.067 15.5894 116.109C15.5894 115.15 15.9401 114.231 16.5645 113.553C17.1888 112.875 18.0356 112.494 18.9186 112.494H85.0863C85.9693 112.494 86.8161 112.875 87.4404 113.553C88.0648 114.231 88.4155 115.15 88.4155 116.109C88.4155 117.067 88.0648 117.987 87.4404 118.664C86.8161 119.342 85.9693 119.723 85.0863 119.723Z" fill="#CCCCCC"/>
<path d="M85.0863 135.084H18.9186C18.0356 135.084 17.1888 134.703 16.5645 134.025C15.9401 133.347 15.5894 132.428 15.5894 131.469C15.5894 130.511 15.9401 129.591 16.5645 128.914C17.1888 128.236 18.0356 127.855 18.9186 127.855H85.0863C85.9693 127.855 86.8161 128.236 87.4404 128.914C88.0648 129.591 88.4155 130.511 88.4155 131.469C88.4155 132.428 88.0648 133.347 87.4404 134.025C86.8161 134.703 85.9693 135.084 85.0863 135.084Z" fill="#CCCCCC"/>
<path d="M45.1361 58.2801H13.9249C13.0419 58.2801 12.1951 57.8993 11.5708 57.2215C10.9465 56.5437 10.5957 55.6244 10.5957 54.6658C10.5957 53.7072 10.9465 52.7879 11.5708 52.1101C12.1951 51.4323 13.0419 51.0515 13.9249 51.0515H45.1361C46.0191 51.0515 46.8659 51.4323 47.4902 52.1101C48.1146 52.7879 48.4653 53.7072 48.4653 54.6658C48.4653 55.6244 48.1146 56.5437 47.4902 57.2215C46.8659 57.8993 46.0191 58.2801 45.1361 58.2801Z" fill="#63A1FF"/>
<path d="M41.1058 159.851C41.7775 156.763 44.9335 155.751 47.5138 155.864C49.144 155.984 50.7611 156.262 52.3457 156.694C54.0037 157.097 55.6455 157.574 57.2791 158.08C60.2748 159.007 63.2395 160.129 66.2845 160.854C68.8194 161.458 71.5742 161.812 74.1022 160.978C76.5323 160.177 78.5939 158.21 79.2551 155.491C79.8781 152.929 79.0227 150.127 76.7356 148.957C74.65 147.889 72.0155 148.432 70.9817 150.847C69.8162 153.569 70.9808 156.539 72.8263 158.509C73.8753 159.578 75.0242 160.526 76.2545 161.336C77.5031 162.26 78.8929 162.935 80.3592 163.332C82.7667 163.89 85.6344 163.067 86.876 160.57C87.1519 160.005 87.3179 159.384 87.3636 158.747C87.4371 157.878 86.1882 157.884 86.1152 158.747C85.9047 161.233 83.2226 162.397 81.217 162.125C79.8631 161.881 78.5702 161.336 77.4194 160.525C76.3088 159.822 75.2565 159.016 74.2741 158.115C72.5729 156.517 70.9783 153.887 72.1208 151.393C73.0512 149.362 75.4763 149.383 76.9514 150.692C78.7377 152.278 78.4192 155.157 77.241 157.041C75.9364 159.126 73.5719 160 71.3425 160.095C68.9201 160.197 66.5179 159.594 64.2028 158.88C61.3261 157.993 58.4781 157.001 55.5876 156.166C53.9466 155.692 52.293 155.264 50.6224 154.931C49.0428 154.553 47.4203 154.431 45.8077 154.569C43.2027 154.896 40.5434 156.542 39.902 159.491C39.7175 160.339 40.921 160.701 41.1058 159.851L41.1058 159.851Z" fill="#3F3D56"/>
<path d="M168.655 236.482C168.727 245.378 169.327 254.26 170.452 263.072C170.492 263.381 170.534 263.691 170.574 264L247.313 263.535C247.538 263.227 247.76 262.916 247.975 262.601C248.691 261.56 249.363 260.489 249.979 259.38C252.942 254.041 254.298 247.791 252.939 243.478L252.915 243.411C252.621 242.467 252.159 241.595 251.554 240.845C248.455 237.058 242.189 237.689 236.503 240.746C241.603 234.685 245.664 227.037 245.973 220.211C246.275 213.552 243.068 208.796 239.59 204.753C239.476 204.62 239.362 204.49 239.248 204.36C239.192 204.293 239.133 204.23 239.078 204.163C236.364 201.083 233.2 198.046 228.621 198.413C223.598 198.817 218.029 203.384 214.125 208.706C210.22 214.025 207.626 220.067 204.996 225.963C202.362 231.856 199.513 237.899 195.287 242.936C201.011 235.077 205.625 226.135 207.33 217.438C209.035 208.741 207.535 200.388 202.434 196.292C200.885 195.087 199.093 194.302 197.208 194.003C196.988 193.963 196.764 193.931 196.537 193.903C191.815 193.32 186.177 195.092 181.38 199.33C176.098 203.997 172.435 210.915 170.613 217.482C168.791 224.048 168.596 230.37 168.655 236.482Z" fill="#F2F2F2"/>
<path d="M218.863 263.707L220.33 263.698C220.796 263.382 221.264 263.069 221.735 262.761C222.026 262.561 222.32 262.369 222.615 262.173C227.482 258.946 232.38 255.85 237.308 252.886C242.232 249.92 247.181 247.09 252.154 244.397C252.286 244.335 252.393 244.224 252.458 244.085C252.522 243.945 252.54 243.786 252.507 243.634C252.502 243.614 252.494 243.595 252.483 243.578C252.414 243.437 252.259 243.378 252.032 243.499C251.422 243.831 250.809 244.163 250.199 244.502C245.212 247.241 240.246 250.117 235.302 253.13C230.362 256.141 225.449 259.285 220.565 262.562C220.462 262.63 220.359 262.702 220.257 262.77C219.791 263.082 219.329 263.395 218.863 263.707Z" fill="white"/>
<path d="M199.942 263.822L200.85 263.816C201.054 263.505 201.256 263.195 201.46 262.884C206.269 255.563 211.076 248.243 215.882 240.923C223.753 228.939 231.622 216.955 239.488 204.971C239.535 204.906 239.569 204.832 239.59 204.754C239.657 204.488 239.478 204.333 239.248 204.36C239.151 204.375 239.058 204.412 238.975 204.47C238.893 204.527 238.822 204.602 238.768 204.691C234.356 211.412 229.944 218.13 225.533 224.846C217.703 236.77 209.874 248.693 202.046 260.615C201.549 261.372 201.051 262.132 200.553 262.889C200.348 263.2 200.144 263.511 199.942 263.822Z" fill="white"/>
<path d="M179.727 258.101C179.774 259.762 179.875 261.395 180.007 263.014C180.033 263.323 180.058 263.633 180.084 263.942L181.036 263.937C181.007 263.627 180.978 263.318 180.952 263.008C180.751 260.67 180.608 258.305 180.589 255.876C180.564 249.142 181.168 242.422 182.393 235.82C183.695 228.712 185.565 221.741 187.981 214.984C190.517 207.859 193.574 200.965 197.124 194.369C197.191 194.262 197.22 194.132 197.208 194.003C197.169 193.709 196.807 193.621 196.537 193.903C196.484 193.958 196.438 194.021 196.401 194.09C195.962 194.91 195.53 195.732 195.107 196.557C191.689 203.189 188.762 210.107 186.357 217.244C184.065 224.023 182.322 231.005 181.147 238.112C180.047 244.705 179.571 251.403 179.727 258.101Z" fill="white"/>
<path d="M86.9772 160.172C86.8193 160.03 86.7039 159.839 86.6455 159.626C86.5871 159.412 86.5883 159.184 86.6489 158.971C86.7095 158.758 86.8269 158.569 86.9861 158.429C87.1454 158.288 87.3395 158.201 87.544 158.18C89.8138 157.942 92.1045 158.197 94.2826 158.93L116.47 166.369C116.757 166.465 117.024 166.622 117.255 166.83C117.487 167.038 117.678 167.294 117.818 167.583C117.959 167.871 118.045 168.187 118.073 168.512C118.101 168.837 118.07 169.165 117.981 169.476C117.893 169.788 117.748 170.078 117.556 170.329C117.364 170.58 117.129 170.788 116.863 170.94C116.597 171.093 116.307 171.187 116.007 171.217C115.708 171.247 115.406 171.214 115.119 171.117L92.9318 163.678C90.7523 162.95 88.7281 161.758 86.9772 160.172Z" fill="#3F3D56"/>
<path d="M177.925 191.074C177.323 190.8 176.783 190.385 176.344 189.86C175.905 189.334 175.577 188.711 175.384 188.033C175.191 187.355 175.137 186.639 175.226 185.936C175.315 185.233 175.545 184.56 175.9 183.964L172.097 162.373L181.789 161.552L182.374 182.672C183.257 183.385 183.868 184.425 184.092 185.595C184.315 186.765 184.136 187.983 183.588 189.018C183.039 190.054 182.16 190.835 181.116 191.214C180.073 191.593 178.937 191.543 177.925 191.074Z" fill="#FFB8B8"/>
<path d="M171.498 179.931L161.626 130.016C161.221 127.966 161.582 125.825 162.631 124.064C163.679 122.304 165.329 121.067 167.218 120.627C169.106 120.187 171.078 120.579 172.7 121.717C174.322 122.856 175.461 124.647 175.867 126.697L185.739 176.611C185.843 177.138 185.75 177.688 185.48 178.141C185.211 178.594 184.787 178.912 184.301 179.026L173.723 181.492C173.482 181.548 173.234 181.552 172.992 181.504C172.75 181.456 172.519 181.356 172.313 181.211C172.106 181.066 171.928 180.879 171.788 180.659C171.648 180.439 171.55 180.192 171.498 179.931Z" fill="#63A1FF"/>
<path d="M155.295 258.45H150.193L147.766 237.086L155.296 237.086L155.295 258.45Z" fill="#FFB8B8"/>
<path d="M146.549 256.867H156.388V263.592H140.354C140.354 262.709 140.514 261.835 140.825 261.019C141.136 260.203 141.593 259.461 142.168 258.837C142.743 258.212 143.426 257.717 144.178 257.379C144.93 257.041 145.735 256.867 146.549 256.867Z" fill="#2F2E41"/>
<path d="M172.357 257.998H167.255L164.828 236.634L172.358 236.634L172.357 257.998Z" fill="#FFB8B8"/>
<path d="M163.611 256.415H173.45V263.141H157.416C157.416 262.257 157.576 261.383 157.887 260.567C158.198 259.751 158.655 259.009 159.23 258.385C159.805 257.76 160.488 257.265 161.24 256.927C161.992 256.589 162.797 256.415 163.611 256.415Z" fill="#2F2E41"/>
<path d="M149.182 254.464C148.991 254.294 148.833 254.084 148.717 253.846C148.602 253.609 148.531 253.348 148.509 253.081L142.578 182.25C142.555 181.975 142.584 181.698 142.663 181.436C142.742 181.173 142.869 180.931 143.037 180.724C143.205 180.517 143.41 180.349 143.64 180.23C143.869 180.112 144.119 180.045 144.373 180.035L174.119 178.824C174.377 178.813 174.633 178.861 174.873 178.963C175.113 179.065 175.331 179.22 175.513 179.417C175.695 179.615 175.838 179.851 175.932 180.112C176.026 180.372 176.07 180.65 176.061 180.93L173.683 251.488C173.665 251.982 173.483 252.452 173.17 252.811C172.857 253.17 172.434 253.393 171.981 253.438L165.983 254.03C165.734 254.055 165.484 254.025 165.246 253.943C165.008 253.861 164.787 253.728 164.597 253.552C164.408 253.376 164.252 253.16 164.14 252.918C164.028 252.675 163.962 252.411 163.945 252.141L161.193 207.316C161.191 207.23 161.173 207.145 161.14 207.066C161.108 206.988 161.061 206.917 161.003 206.858C160.945 206.799 160.877 206.754 160.803 206.724C160.728 206.694 160.649 206.68 160.57 206.684H160.568C160.488 206.68 160.409 206.694 160.334 206.725C160.26 206.755 160.191 206.801 160.133 206.861C160.076 206.92 160.029 206.991 159.997 207.071C159.965 207.15 159.948 207.235 159.946 207.321L157.483 252.448C157.459 252.931 157.275 253.389 156.966 253.738C156.658 254.087 156.244 254.304 155.8 254.351L150.561 254.92C150.314 254.947 150.066 254.921 149.829 254.843C149.592 254.765 149.372 254.636 149.182 254.464H149.182Z" fill="#2F2E41"/>
<path d="M160.624 110.02C166.269 110.02 170.845 105.052 170.845 98.9239C170.845 92.7956 166.269 87.8276 160.624 87.8276C154.979 87.8276 150.403 92.7956 150.403 98.9239C150.403 105.052 154.979 110.02 160.624 110.02Z" fill="#FFB8B8"/>
<path d="M140.941 182.73C140.759 182.506 140.625 182.24 140.55 181.952C140.474 181.665 140.458 181.363 140.503 181.068C142.39 168.616 141.326 150.313 140.102 137.151C139.782 133.66 140.316 130.139 141.648 126.942C142.981 123.746 145.066 120.987 147.693 118.944L153.031 113.977C153.386 113.65 153.838 113.476 154.303 113.488L167.564 113.899C168.042 113.913 168.497 114.126 168.835 114.494L170.884 119.421L170.905 119.437C173.347 121.386 175.306 123.961 176.607 126.933C177.908 129.904 178.511 133.179 178.361 136.465L176.409 180.26C176.384 180.769 176.184 181.25 175.85 181.607C175.515 181.965 175.069 182.174 174.6 182.193L142.412 183.421C142.391 183.422 142.37 183.422 142.349 183.422C142.083 183.423 141.819 183.361 141.576 183.242C141.333 183.122 141.117 182.948 140.941 182.73Z" fill="#63A1FF"/>
<path d="M102.332 164.455C102.316 163.746 102.444 163.041 102.706 162.391C102.968 161.741 103.358 161.161 103.848 160.692C104.339 160.224 104.918 159.877 105.545 159.678C106.173 159.479 106.832 159.431 107.478 159.538L124.068 146.934L128.725 156.2L111.215 165.423C110.976 166.589 110.353 167.62 109.461 168.32C108.569 169.021 107.472 169.341 106.377 169.222C105.283 169.103 104.266 168.552 103.521 167.673C102.775 166.794 102.352 165.649 102.332 164.455L102.332 164.455Z" fill="#FFB8B8"/>
<path d="M116.294 166.646C116.05 166.606 115.817 166.514 115.607 166.376C115.396 166.237 115.213 166.055 115.068 165.839L108.666 156.37C108.373 155.935 108.25 155.392 108.325 154.859C108.401 154.326 108.667 153.847 109.067 153.528L146.976 123.32C148.533 122.079 150.481 121.561 152.39 121.879C153.335 122.036 154.243 122.394 155.061 122.932C155.878 123.471 156.591 124.178 157.157 125.015C157.722 125.853 158.131 126.802 158.359 127.811C158.587 128.819 158.629 129.866 158.484 130.893C158.339 131.919 158.009 132.904 157.514 133.792C157.018 134.68 156.366 135.453 155.595 136.067L117.686 166.275C117.366 166.531 116.979 166.67 116.582 166.67C116.485 166.67 116.389 166.662 116.294 166.646Z" fill="#63A1FF"/>
<path d="M161.147 108.802C162.503 106.998 162.355 104.249 161.267 102.243C160.179 100.236 158.332 98.8545 156.432 97.7751C154.532 96.6958 152.513 95.847 150.725 94.5618C148.936 93.2766 149.014 87.8359 148.538 85.5657L149.674 85.9764C149.237 85.3702 149.097 83.5789 148.661 82.9727C149.944 83.1104 150.931 84.4331 152.214 84.5707L151.474 82.4128C155.874 82.1183 158.61 85.438 163.011 85.1435C165.191 84.9976 167.559 84.9052 169.351 86.2608C170.909 87.4388 171.697 89.4776 172.214 91.4604C173.325 95.7177 173.498 100.487 171.579 104.39C169.661 108.294 165.239 110.925 161.375 109.515L161.147 108.802Z" fill="#2F2E41"/>
<path d="M105.031 263.842H263.584C263.694 263.842 263.8 263.794 263.878 263.71C263.956 263.625 264 263.51 264 263.39C264 263.27 263.956 263.156 263.878 263.071C263.8 262.986 263.694 262.938 263.584 262.938H105.031C104.921 262.938 104.815 262.986 104.737 263.071C104.659 263.156 104.615 263.27 104.615 263.39C104.615 263.51 104.659 263.625 104.737 263.71C104.815 263.794 104.921 263.842 105.031 263.842Z" fill="#3F3D56"/>
</g>
<defs>
<clipPath id="clip0">
<rect width="264" height="264" fill="white"/>
</clipPath>
</defs>
</svg>
