<svg width="264" height="265" viewBox="0 0 264 265" fill="none" xmlns="http://www.w3.org/2000/svg">
<g clip-path="url(#clip0)">
<path d="M240.856 264.736V238.16C240.856 238.16 250.833 257.001 240.856 264.736Z" fill="#F1F1F1"/>
<path d="M241.473 264.731L222.614 246.759C222.614 246.759 242.731 251.871 241.473 264.731Z" fill="#F1F1F1"/>
<path d="M174.957 117.261L74.8834 177.979C74.5331 178.191 74.1162 178.25 73.724 178.143C73.3318 178.036 72.9965 177.772 72.7915 177.409L8.43733 63.1064C8.23315 62.7427 8.17624 62.3099 8.27909 61.9028C8.38193 61.4957 8.63614 61.1476 8.98593 60.9348L109.06 0.216622C109.41 0.00466643 109.827 -0.0544083 110.219 0.0523577C110.612 0.159124 110.947 0.423013 111.152 0.786131L175.506 115.089C175.71 115.453 175.767 115.886 175.664 116.293C175.561 116.7 175.307 117.048 174.957 117.261Z" fill="white"/>
<path d="M174.957 117.261L74.8834 177.979C74.5331 178.191 74.1162 178.25 73.724 178.143C73.3318 178.036 72.9965 177.772 72.7915 177.409L8.43733 63.1064C8.23315 62.7427 8.17624 62.3099 8.27909 61.9028C8.38193 61.4957 8.63614 61.1476 8.98593 60.9348L109.06 0.216622C109.41 0.00466643 109.827 -0.0544083 110.219 0.0523577C110.612 0.159124 110.947 0.423013 111.152 0.786131L175.506 115.089C175.71 115.453 175.767 115.886 175.664 116.293C175.561 116.7 175.307 117.048 174.957 117.261ZM9.29459 61.483C9.08471 61.6107 8.93218 61.8195 8.87047 62.0638C8.80876 62.3081 8.84291 62.5678 8.96543 62.7859L73.3196 177.089C73.4426 177.307 73.6438 177.465 73.8791 177.529C74.1144 177.593 74.3646 177.558 74.5747 177.431L174.649 116.712C174.859 116.585 175.011 116.376 175.073 116.132C175.135 115.887 175.101 115.628 174.978 115.409L110.624 1.10653C110.501 0.888644 110.3 0.730302 110.064 0.666241C109.829 0.60218 109.579 0.637631 109.369 0.764819L9.29459 61.483Z" fill="#3F3D56"/>
<path d="M73.6225 72.8659L48.802 87.9253C48.4517 88.1373 48.0348 88.1964 47.6426 88.0896C47.2505 87.9828 46.9151 87.7189 46.7101 87.3558L32.2034 61.5897C31.9993 61.2261 31.9424 60.7932 32.0452 60.3861C32.148 59.979 32.4023 59.6309 32.752 59.4181L57.5725 44.3587C57.9228 44.1468 58.3397 44.0877 58.7319 44.1944C59.1241 44.3012 59.4594 44.5651 59.6644 44.9282L74.1711 70.6944C74.3753 71.058 74.4322 71.4908 74.3293 71.8979C74.2265 72.305 73.9723 72.6531 73.6225 72.8659ZM33.0607 59.9663C32.8508 60.094 32.6983 60.3029 32.6366 60.5471C32.5749 60.7914 32.609 61.0511 32.7315 61.2693L47.2382 87.0354C47.3612 87.2533 47.5624 87.4116 47.7977 87.4757C48.033 87.5397 48.2832 87.5043 48.4934 87.3771L73.3138 72.3177C73.5237 72.1901 73.6763 71.9812 73.738 71.7369C73.7997 71.4926 73.7655 71.2329 73.643 71.0148L59.1363 45.2486C59.0133 45.0308 58.8121 44.8724 58.5768 44.8084C58.3415 44.7443 58.0913 44.7797 57.8812 44.9069L33.0607 59.9663Z" fill="#F2F2F2"/>
<path d="M68.268 80.3437L43.4475 95.4031C43.1322 95.5939 42.757 95.6471 42.404 95.551C42.0511 95.4549 41.7493 95.2174 41.5648 94.8906L27.0581 69.1244C26.8743 68.7972 26.8231 68.4076 26.9157 68.0412C27.0082 67.6748 27.237 67.3615 27.5518 67.17L52.3723 52.1106C52.6876 51.9199 53.0628 51.8667 53.4158 51.9628C53.7687 52.0589 54.0705 52.2964 54.255 52.6232L68.7617 78.3893C68.9455 78.7166 68.9967 79.1061 68.9041 79.4725C68.8116 79.8389 68.5828 80.1522 68.268 80.3437Z" fill="#63A1FF"/>
<path d="M128.177 60.9114L50.5468 108.012C50.2317 108.203 49.8563 108.257 49.5032 108.161C49.1501 108.064 48.8483 107.827 48.6641 107.5C48.48 107.172 48.4285 106.783 48.5211 106.416C48.6137 106.05 48.8428 105.736 49.1579 105.545L126.788 58.4445C126.944 58.3498 127.116 58.288 127.296 58.2625C127.475 58.237 127.657 58.2484 127.832 58.296C128.006 58.3436 128.17 58.4264 128.314 58.5399C128.458 58.6533 128.579 58.795 128.671 58.957C128.762 59.119 128.821 59.2981 128.846 59.4839C128.871 59.6698 128.86 59.8589 128.814 60.0404C128.768 60.2219 128.688 60.3922 128.579 60.5417C128.469 60.6911 128.333 60.8168 128.177 60.9114Z" fill="#CCCCCC"/>
<path d="M114.213 80.7834L55.3305 116.509C55.1745 116.604 55.002 116.666 54.8229 116.691C54.6439 116.717 54.4617 116.706 54.2869 116.658C53.9338 116.562 53.632 116.324 53.4478 115.997C53.2636 115.67 53.2122 115.28 53.3048 114.914C53.3974 114.547 53.6264 114.234 53.9416 114.042L112.824 78.3165C112.98 78.2218 113.153 78.16 113.332 78.1345C113.511 78.109 113.693 78.1204 113.868 78.168C114.043 78.2156 114.207 78.2984 114.351 78.4119C114.495 78.5253 114.616 78.667 114.707 78.829C114.798 78.991 114.858 79.1701 114.882 79.3559C114.907 79.5418 114.896 79.7309 114.85 79.9124C114.804 80.0939 114.724 80.2642 114.615 80.4137C114.506 80.5631 114.369 80.6888 114.213 80.7834V80.7834Z" fill="#CCCCCC"/>
<path d="M110.319 29.8233L75.9931 50.6502C75.678 50.8414 75.3026 50.8948 74.9495 50.7987C74.5964 50.7025 74.2946 50.4647 74.1104 50.1376C73.9262 49.8105 73.8748 49.4208 73.9674 49.0542C74.06 48.6877 74.289 48.3744 74.6042 48.1832L108.93 27.3564C109.246 27.1652 109.621 27.1117 109.974 27.2079C110.149 27.2555 110.313 27.3383 110.457 27.4518C110.601 27.5652 110.722 27.7069 110.813 27.8689C110.904 28.0309 110.964 28.2099 110.988 28.3958C111.013 28.5817 111.002 28.7708 110.956 28.9523C110.91 29.1338 110.83 29.3041 110.721 29.4536C110.612 29.603 110.475 29.7287 110.319 29.8233Z" fill="#CCCCCC"/>
<path d="M106.537 43.5184L80.7773 59.1475C80.6213 59.2422 80.4488 59.304 80.2697 59.3295C80.0907 59.355 79.9085 59.3436 79.7337 59.296C79.5589 59.2484 79.3948 59.1655 79.2508 59.0521C79.1068 58.9387 78.9858 58.7969 78.8946 58.635C78.8034 58.473 78.7438 58.2939 78.7193 58.108C78.6947 57.9222 78.7057 57.7331 78.7516 57.5516C78.7974 57.3701 78.8773 57.1998 78.9865 57.0503C79.0958 56.9009 79.2323 56.7752 79.3884 56.6805L105.148 41.0514C105.463 40.8602 105.838 40.8068 106.192 40.9029C106.545 40.999 106.846 41.2368 107.031 41.564C107.215 41.8911 107.266 42.2808 107.174 42.6473C107.081 43.0138 106.852 43.3272 106.537 43.5184Z" fill="#CCCCCC"/>
<path d="M137.745 77.9061L60.1152 125.007C59.8 125.198 59.4247 125.251 59.0716 125.155C58.7185 125.059 58.4167 124.821 58.2325 124.494C58.0483 124.167 57.9969 123.777 58.0895 123.411C58.1821 123.044 58.4111 122.731 58.7262 122.54L136.356 75.4391C136.671 75.2479 137.047 75.1945 137.4 75.2906C137.753 75.3868 138.055 75.6245 138.239 75.9517C138.423 76.2788 138.475 76.6685 138.382 77.035C138.289 77.4016 138.06 77.7149 137.745 77.9061V77.9061Z" fill="#CCCCCC"/>
<path d="M123.782 97.7781L64.8989 133.504C64.7428 133.599 64.5704 133.661 64.3913 133.686C64.2122 133.712 64.0301 133.7 63.8553 133.653C63.6805 133.605 63.5164 133.522 63.3724 133.409C63.2284 133.295 63.1074 133.154 63.0162 132.992C62.925 132.83 62.8654 132.651 62.8409 132.465C62.8163 132.279 62.8273 132.09 62.8731 131.908C62.919 131.727 62.9988 131.556 63.1081 131.407C63.2174 131.257 63.3539 131.132 63.5099 131.037L122.393 95.3112C122.549 95.2165 122.721 95.1547 122.9 95.1292C123.079 95.1037 123.261 95.1151 123.436 95.1627C123.611 95.2103 123.775 95.2932 123.919 95.4066C124.063 95.52 124.184 95.6618 124.275 95.8237C124.366 95.9857 124.426 96.1648 124.451 96.3507C124.475 96.5365 124.464 96.7256 124.418 96.9071C124.372 97.0886 124.293 97.2589 124.183 97.4084C124.074 97.5578 123.938 97.6835 123.782 97.7781V97.7781Z" fill="#CCCCCC"/>
<path d="M147.313 94.9008L69.6831 142.001C69.527 142.096 69.3545 142.158 69.1755 142.183C68.9964 142.209 68.8143 142.198 68.6395 142.15C68.4646 142.102 68.3005 142.019 68.1566 141.906C68.0126 141.793 67.8916 141.651 67.8004 141.489C67.7092 141.327 67.6496 141.148 67.6251 140.962C67.6005 140.776 67.6115 140.587 67.6573 140.406C67.7032 140.224 67.783 140.054 67.8923 139.904C68.0015 139.755 68.1381 139.629 68.2941 139.534L145.924 92.4338C146.08 92.3392 146.253 92.2773 146.432 92.2519C146.611 92.2264 146.793 92.2378 146.968 92.2854C147.143 92.3329 147.307 92.4158 147.451 92.5292C147.595 92.6427 147.716 92.7844 147.807 92.9464C147.898 93.1084 147.958 93.2874 147.982 93.4733C148.007 93.6592 147.996 93.8483 147.95 94.0298C147.904 94.2112 147.824 94.3816 147.715 94.531C147.606 94.6805 147.469 94.8061 147.313 94.9008Z" fill="#CCCCCC"/>
<path d="M152.097 103.398L74.4672 150.499C74.3112 150.593 74.1387 150.655 73.9597 150.681C73.7806 150.706 73.5984 150.695 73.4236 150.647C73.2488 150.6 73.0847 150.517 72.9408 150.403C72.7968 150.29 72.6757 150.148 72.5845 149.986C72.4933 149.824 72.4338 149.645 72.4092 149.459C72.3847 149.273 72.3957 149.084 72.4415 148.903C72.4874 148.721 72.5672 148.551 72.6764 148.402C72.7857 148.252 72.9223 148.127 73.0783 148.032L150.708 100.931C150.864 100.837 151.037 100.775 151.216 100.749C151.395 100.724 151.577 100.735 151.752 100.783C151.927 100.83 152.091 100.913 152.235 101.027C152.379 101.14 152.5 101.282 152.591 101.444C152.682 101.606 152.742 101.785 152.766 101.971C152.791 102.157 152.78 102.346 152.734 102.527C152.688 102.709 152.608 102.879 152.499 103.028C152.39 103.178 152.253 103.303 152.097 103.398Z" fill="#CCCCCC"/>
<path d="M126.993 136.477C128.072 135.159 129.043 133.749 129.896 132.263C130.661 130.923 131.411 129.49 131.58 127.918C131.666 127.248 131.599 126.567 131.384 125.93C131.168 125.292 130.811 124.716 130.342 124.249C129.887 123.815 129.312 123.541 128.698 123.469C128.084 123.397 127.464 123.529 126.928 123.846C126.385 124.17 125.936 124.64 125.63 125.206C125.323 125.773 125.17 126.415 125.186 127.065C125.23 127.78 125.429 128.476 125.768 129.1C126.107 129.724 126.578 130.261 127.145 130.67C129.439 132.396 133.023 132.305 135.469 130.992C138.223 129.513 139.646 125.643 137.482 122.993C137.032 122.442 136.283 123.058 136.396 123.653C136.539 124.456 136.972 125.171 137.606 125.654C138.241 126.137 139.028 126.35 139.809 126.25C140.59 126.15 141.304 125.744 141.806 125.115C142.308 124.487 142.56 123.683 142.511 122.868L141.538 123.458C142.731 124.007 144.041 124.22 145.338 124.075C146.636 123.931 147.873 123.434 148.927 122.636C149.448 122.243 149.913 121.776 150.309 121.248C150.786 120.603 151.586 120.187 152.233 119.722L156.901 116.374C157.588 115.881 156.935 114.708 156.243 115.204L152.015 118.237C151.311 118.742 150.602 119.241 149.901 119.753C149.401 120.119 149.093 120.709 148.637 121.144C147.775 121.949 146.71 122.483 145.566 122.684C144.423 122.885 143.248 122.744 142.178 122.278C142.079 122.222 141.967 122.194 141.854 122.196C141.741 122.198 141.63 122.23 141.532 122.29C141.435 122.349 141.353 122.433 141.296 122.535C141.239 122.636 141.208 122.751 141.205 122.868C141.257 123.354 141.121 123.842 140.828 124.225C140.535 124.608 140.108 124.855 139.64 124.913C139.172 124.97 138.701 124.833 138.33 124.532C137.958 124.231 137.717 123.79 137.657 123.304L136.571 123.964C137.967 125.673 137.037 128.294 135.429 129.441C133.63 130.723 130.972 130.946 128.945 130.149C128.447 129.971 127.991 129.689 127.603 129.319C127.216 128.95 126.906 128.502 126.692 128.003C126.495 127.552 126.438 127.048 126.531 126.562C126.624 126.076 126.861 125.633 127.21 125.294C127.512 124.985 127.918 124.809 128.342 124.804C128.766 124.8 129.176 124.966 129.484 125.269C129.82 125.625 130.066 126.061 130.201 126.539C130.337 127.017 130.356 127.522 130.259 128.01C130.05 129.367 129.327 130.618 128.655 131.778C127.887 133.099 127.019 134.354 126.059 135.531C125.52 136.193 126.449 137.146 126.993 136.477L126.993 136.477Z" fill="#63A1FF"/>
<path d="M138.58 168.689C138.692 168.809 138.796 168.938 138.889 169.075L153.344 168.708L155.031 165.509L160.014 167.52L157.559 173.484C157.361 173.966 157.017 174.368 156.58 174.63C156.143 174.892 155.635 174.999 155.134 174.937L138.802 172.888C138.417 173.395 137.892 173.767 137.298 173.957C136.704 174.146 136.068 174.143 135.475 173.948C134.883 173.753 134.362 173.375 133.981 172.865C133.6 172.355 133.378 171.737 133.344 171.093C133.31 170.449 133.466 169.809 133.79 169.259C134.115 168.709 134.594 168.274 135.162 168.013C135.73 167.752 136.362 167.677 136.972 167.798C137.583 167.918 138.144 168.229 138.58 168.689Z" fill="#FFB7B7"/>
<path d="M185.703 259.825H180.95L178.689 240.792L185.704 240.793L185.703 259.825Z" fill="#FFB7B7"/>
<path d="M186.915 264.608L171.589 264.607V264.406C171.589 262.764 172.218 261.189 173.337 260.027C174.455 258.866 175.973 258.214 177.555 258.214H177.555L186.916 258.214L186.915 264.608Z" fill="#2F2E41"/>
<path d="M142.543 259.715L138.172 257.777L143.295 239.352L149.746 242.213L142.543 259.715Z" fill="#FFB7B7"/>
<path d="M141.848 264.608L127.754 258.357L127.83 258.172C128.452 256.662 129.626 255.47 131.094 254.858C132.562 254.247 134.204 254.265 135.659 254.91L135.66 254.91L144.268 258.728L141.848 264.608Z" fill="#2F2E41"/>
<path d="M162.6 172.812L162.256 178.594L172.303 179.71L182.816 180.878L179.721 172.098L162.6 172.812Z" fill="#FFB7B7"/>
<path d="M161.94 178.668L158.037 150.422L164.802 148.12L166.789 145.291L176.458 145.885L177.877 149.186L183.033 151.716L182.241 166.991L182.819 179.77L161.94 178.668Z" fill="#2F2E41"/>
<path d="M159.483 171.099L152.602 168.241L152.631 168.113C152.661 167.985 155.59 155.28 155.979 153.239C156.384 151.112 157.864 150.523 157.927 150.5L157.972 150.482L160.696 151.342L161.892 161.098L159.483 171.099Z" fill="#2F2E41"/>
<path d="M146.083 256.37L136.923 254.42L151.564 212.483L156.574 198.179C156.574 198.179 159.752 186.71 161.188 182.272L162.054 176.317L182.566 178.674C182.566 178.674 188.295 187.408 186.555 201.644L187.342 255.151L178.182 255.639L170.51 201.674L157.044 231.257C157.044 231.257 152.8 243.881 149.763 246.618L146.083 256.37Z" fill="#2F2E41"/>
<path d="M174.34 180.66C174.502 180.656 174.663 180.665 174.823 180.687L184.392 169.433L183.279 165.975L188.088 163.548L190.632 169.473C190.837 169.951 190.888 170.486 190.775 170.997C190.663 171.508 190.394 171.967 190.009 172.306L177.458 183.346C177.554 183.984 177.46 184.636 177.19 185.217C176.919 185.798 176.485 186.28 175.945 186.599C175.404 186.917 174.783 187.057 174.164 187C173.545 186.944 172.957 186.692 172.479 186.28C172.001 185.868 171.655 185.315 171.487 184.693C171.319 184.072 171.337 183.412 171.539 182.802C171.741 182.192 172.118 181.66 172.618 181.278C173.118 180.895 173.719 180.679 174.34 180.66Z" fill="#FFB7B7"/>
<path d="M183.628 170.529L179.637 160.781L181.194 153.992L182.871 151.792C182.994 151.737 183.126 151.71 183.26 151.711C183.394 151.712 183.526 151.742 183.647 151.799C184.266 152.058 184.793 152.85 185.213 154.154L188.954 165.216L183.628 170.529Z" fill="#2F2E41"/>
<path d="M162.918 141.68V134.331C162.918 131.719 163.918 129.215 165.697 127.368C167.476 125.521 169.888 124.484 172.404 124.484C174.92 124.484 177.333 125.521 179.112 127.368C180.89 129.215 181.89 131.719 181.89 134.331V141.68C181.889 142.03 181.755 142.367 181.516 142.615C181.277 142.862 180.953 143.002 180.616 143.002H164.193C163.855 143.002 163.531 142.862 163.292 142.615C163.053 142.367 162.919 142.03 162.918 141.68Z" fill="#2F2E41"/>
<path d="M170.455 142.831C174.296 142.831 177.409 139.599 177.409 135.612C177.409 131.625 174.296 128.392 170.455 128.392C166.614 128.392 163.5 131.625 163.5 135.612C163.5 139.599 166.614 142.831 170.455 142.831Z" fill="#FFB7B7"/>
<path d="M160.674 134.919C160.676 132.854 161.467 130.874 162.874 129.413C164.281 127.953 166.188 127.132 168.177 127.129H169.593C171.583 127.132 173.49 127.953 174.897 129.413C176.303 130.874 177.095 132.854 177.097 134.919V135.066H174.105L173.084 132.099L172.88 135.066H171.334L170.819 133.569L170.716 135.066H160.674L160.674 134.919Z" fill="#2F2E41"/>
<path d="M169.77 143.829C169.63 143.631 169.546 143.397 169.528 143.152C169.511 142.907 169.56 142.662 169.671 142.445C171.171 139.483 173.272 134.009 170.483 130.633L170.283 130.391H178.378V143.007L171.024 144.353C170.95 144.367 170.874 144.374 170.799 144.374C170.598 144.374 170.4 144.325 170.221 144.23C170.043 144.135 169.888 143.998 169.77 143.829Z" fill="#2F2E41"/>
<path d="M75.3442 255.668L79.6397 257.261L87.6054 240.82L81.2655 238.468L75.3442 255.668Z" fill="#9F616A"/>
<path d="M72.7598 259.584L74.7492 253.805L83.2088 256.944C84.6376 257.476 85.8047 258.574 86.4542 259.999C87.1037 261.423 87.1825 263.056 86.6734 264.541L86.6107 264.722L72.7598 259.584Z" fill="#2F2E41"/>
<path d="M103.277 260.078L107.839 260.078L110.009 241.813L103.276 241.813L103.277 260.078Z" fill="#9F616A"/>
<path d="M102.113 258.532L111.097 258.532H111.097C111.849 258.532 112.594 258.686 113.288 258.984C113.983 259.283 114.614 259.721 115.145 260.272C115.677 260.824 116.099 261.48 116.387 262.201C116.674 262.922 116.822 263.694 116.822 264.475V264.668L102.114 264.669L102.113 258.532Z" fill="#2F2E41"/>
<path d="M92.8809 143.385L94.8647 139.315C94.8647 139.315 102.255 141.237 102.927 145.684L92.8809 143.385Z" fill="#F1F1F1"/>
<path d="M84.6955 189.916L90.0905 221.169L75.7651 247.469L84.3232 250.945L98.8347 225.452L100.695 218.499L101.811 254.808L109.53 254.564L113.068 220.661L107.392 189.143L84.6955 189.916Z" fill="#2F2E41"/>
<path d="M94.9364 197.304C87.0106 197.304 81.9783 195.73 81.8656 195.705L81.6831 195.665L85.8114 175.796L85.9973 157.468C85.9973 149.701 90.9214 143.975 91.6047 143.446C91.7197 142.975 91.9325 142.535 92.2282 142.158C92.5239 141.781 92.8953 141.475 93.3166 141.262C94.9591 140.489 96.9662 141.417 97.0507 141.457L103.075 143.802L103.103 143.889C103.176 144.111 111.111 171.153 111.111 171.153C111.111 171.153 110.631 194.78 110.463 195.554C110.463 195.554 99.3402 197.304 94.9364 197.304Z" fill="#3F3D56"/>
<path d="M101.027 138.034C105.523 138.034 109.169 134.25 109.169 129.581C109.169 124.913 105.523 121.129 101.027 121.129C96.5297 121.129 92.8843 124.913 92.8843 129.581C92.8843 134.25 96.5297 138.034 101.027 138.034Z" fill="#9F616A"/>
<path opacity="0.2" d="M91.9478 158.967L106.193 179.599L108.296 169.964L91.9478 158.967Z" fill="black"/>
<path d="M136.609 173.005C136.208 173.334 135.743 173.568 135.246 173.69C134.749 173.812 134.232 173.82 133.732 173.712C133.232 173.604 132.76 173.384 132.351 173.067C131.942 172.75 131.604 172.343 131.363 171.876L119.102 173.913L121.758 167.809L132.994 166.81C133.777 166.441 134.663 166.382 135.485 166.646C136.307 166.91 137.006 167.477 137.452 168.241C137.898 169.004 138.058 169.911 137.903 170.789C137.747 171.667 137.287 172.456 136.609 173.005H136.609Z" fill="#9F616A"/>
<path d="M122.389 167.461L126.795 167.013L128.016 173.392L122.472 173.494L122.389 167.461Z" fill="#F1F1F1"/>
<path d="M126.001 175.616L104.424 173.621L93.5294 155.634L93.4958 155.475C93.1866 154.006 93.4031 152.47 94.1049 151.154C94.8067 149.839 95.9458 148.833 97.3095 148.325C98.6732 147.818 100.168 147.842 101.516 148.395C102.863 148.948 103.971 149.991 104.631 151.329L111.027 164.279L123.934 166.305L126.001 175.616Z" fill="#3F3D56"/>
<path d="M94.0912 136.92L100.849 137.172C101.261 137.187 102.379 132.572 102.526 131.615C102.641 130.991 102.972 130.433 103.455 130.044C103.938 129.655 104.541 129.462 105.151 129.501C105.657 129.55 106.933 128.569 108.249 127.408C110.749 125.202 110.619 121.059 107.873 119.196C107.798 119.145 107.725 119.098 107.652 119.056C105.92 118.05 103.894 117.712 101.91 117.686C100.111 117.663 98.2607 117.898 96.6758 118.782C93.8343 120.367 92.3221 123.83 92.1893 127.175C92.0564 130.521 93.0896 133.792 94.2621 136.912" fill="#2F2E41"/>
<path d="M263.505 265H0.353887C0.260031 265 0.170018 264.961 0.103651 264.892C0.0372842 264.824 0 264.73 0 264.633C0 264.535 0.0372842 264.442 0.103651 264.373C0.170018 264.304 0.260031 264.265 0.353887 264.265H263.646C263.74 264.265 263.83 264.304 263.896 264.373C263.963 264.442 264 264.535 264 264.633C264 264.836 263.701 265 263.505 265Z" fill="#CBCBCB"/>
</g>
<defs>
<clipPath id="clip0">
<rect width="264" height="265" fill="white"/>
</clipPath>
</defs>
</svg>
