<svg width="377" height="198" viewBox="0 0 377 198" fill="none" xmlns="http://www.w3.org/2000/svg">
<path d="M85.3488 186.219C85.3488 187.391 85.0949 188.406 84.5871 189.266C84.0793 190.105 83.425 190.799 82.6242 191.346C81.8235 191.912 80.9055 192.332 79.8703 192.605C78.8547 192.859 77.8195 192.986 76.7649 192.986C75.4367 192.986 74.2063 192.811 73.0735 192.459C71.9602 192.088 70.9738 191.541 70.1145 190.818C69.2551 190.115 68.552 189.256 68.0051 188.24C67.4582 187.205 67.0969 186.023 66.9211 184.695H61.384C61.4426 186.531 61.843 188.201 62.5852 189.705C63.3469 191.189 64.3723 192.488 65.6613 193.602C67.1067 194.891 68.8059 195.877 70.759 196.561C72.7317 197.244 74.7336 197.586 76.7649 197.586C78.4641 197.586 80.1633 197.352 81.8625 196.883C83.5617 196.395 85.0852 195.672 86.4328 194.715C87.7805 193.777 88.8742 192.596 89.7141 191.17C90.5735 189.744 91.0031 188.074 91.0031 186.16C91.0031 184.266 90.6027 182.596 89.802 181.15C89.0207 179.705 87.9856 178.484 86.6965 177.488C85.3879 176.414 83.9426 175.535 82.3606 174.852C80.7785 174.148 79.1965 173.553 77.6145 173.064C76.6574 172.771 75.632 172.43 74.5383 172.039C73.4641 171.648 72.468 171.16 71.55 170.574C70.6125 169.988 69.841 169.275 69.2356 168.436C68.6301 167.576 68.3176 166.531 68.2981 165.301C68.2981 164.168 68.5227 163.172 68.9719 162.312C69.4406 161.453 70.0656 160.73 70.8469 160.145C71.6086 159.559 72.4777 159.119 73.4543 158.826C74.4504 158.533 75.466 158.387 76.5012 158.387C77.7902 158.387 78.9426 158.592 79.9582 159.002C80.9934 159.393 81.882 159.949 82.6242 160.672C83.3664 161.395 83.9621 162.264 84.4113 163.279C84.8606 164.275 85.1633 165.389 85.3195 166.619H90.886C90.8469 164.666 90.427 162.898 89.6262 161.316C88.8254 159.734 87.761 158.387 86.4328 157.273C85.1047 156.16 83.5813 155.301 81.8625 154.695C80.1438 154.07 78.3567 153.758 76.5012 153.758C74.8215 153.758 73.1516 154.021 71.4914 154.549C69.8313 155.057 68.3469 155.809 67.0383 156.805C65.7297 157.801 64.6652 159.021 63.8449 160.467C63.0442 161.912 62.6438 163.553 62.6438 165.389C62.6438 167.225 63.0442 168.826 63.8449 170.193C64.6652 171.541 65.7199 172.713 67.009 173.709C68.2785 174.686 69.6848 175.525 71.2277 176.229C72.7902 176.912 74.3235 177.498 75.8274 177.986C76.8625 178.318 77.9367 178.689 79.05 179.1C80.1828 179.51 81.218 180.018 82.1555 180.623C83.093 181.248 83.8547 182.01 84.4406 182.908C85.0461 183.807 85.3488 184.91 85.3488 186.219ZM122.677 177.283V172.684H104.864V158.973H125.372V154.344H99.4442V197H125.636V192.4H104.864V177.283H122.677ZM149.516 179.598L157.895 197H163.608L163.637 196.648L154.584 178.426C155.756 177.918 156.83 177.303 157.807 176.58C158.784 175.857 159.623 175.027 160.327 174.09C161.03 173.152 161.577 172.107 161.967 170.955C162.377 169.803 162.582 168.533 162.582 167.146C162.582 164.998 162.202 163.133 161.44 161.551C160.698 159.949 159.672 158.621 158.364 157.566C157.036 156.512 155.493 155.721 153.735 155.193C151.977 154.666 150.102 154.383 148.11 154.344H135.6V197H140.991V179.598H149.516ZM140.991 175.145V158.797H148.11C149.418 158.816 150.62 159.002 151.713 159.354C152.827 159.705 153.784 160.223 154.584 160.906C155.385 161.609 156.01 162.479 156.459 163.514C156.909 164.529 157.133 165.721 157.133 167.088C157.133 168.377 156.899 169.52 156.43 170.516C155.961 171.492 155.327 172.322 154.526 173.006C153.705 173.689 152.758 174.217 151.684 174.588C150.61 174.939 149.467 175.125 148.256 175.145H140.991ZM182.039 197H186.756L200.203 154.344H194.432L184.998 186.131L184.354 188.27L183.738 186.189L174.363 154.344H168.563L182.039 197ZM207.765 154.344V159.061H217.755V192.312H207.765V197H233.546V192.312H223.322V159.061H233.546V154.344H207.765ZM249.868 179.891H258.277C260.191 179.871 261.997 179.578 263.696 179.012C265.415 178.445 266.919 177.625 268.208 176.551C269.497 175.477 270.513 174.158 271.255 172.596C272.017 171.014 272.398 169.197 272.398 167.146C272.398 165.096 272.017 163.279 271.255 161.697C270.513 160.115 269.497 158.787 268.208 157.713C266.919 156.639 265.415 155.818 263.696 155.252C261.997 154.686 260.191 154.383 258.277 154.344H244.448V197H249.868V179.891ZM249.868 175.437V158.797H258.277C259.527 158.816 260.679 159.021 261.734 159.412C262.808 159.803 263.736 160.359 264.517 161.082C265.279 161.805 265.874 162.684 266.304 163.719C266.753 164.754 266.978 165.916 266.978 167.205C266.978 168.494 266.753 169.646 266.304 170.662C265.874 171.658 265.269 172.508 264.488 173.211C263.706 173.914 262.788 174.461 261.734 174.852C260.679 175.223 259.527 175.418 258.277 175.437H249.868ZM292.704 175.76L283.007 154.344H276.825L290.096 181.092L290.184 197H295.223L295.311 181.092L308.583 154.344H302.43L292.704 175.76Z" fill="url(#paint0_linear)"/>
<path d="M216.377 31.7823V45.9049C216.377 56.8544 205.647 66.0697 193.412 66.0697H156.695C146.637 66.0697 138.314 73.5165 138.314 82.2312V112.515C138.314 121.135 146.977 126.205 156.695 128.677C168.331 131.637 179.489 132.172 193.412 128.677C202.667 126.359 211.792 121.693 211.792 112.515V100.395H175.075V96.3549H230.172C240.857 96.3549 244.837 89.9069 248.553 80.2302C252.391 70.2687 252.228 60.6869 248.553 47.9071C245.912 38.706 240.869 31.7823 230.172 31.7823H216.377ZM195.725 108.475C199.535 108.475 202.623 111.176 202.623 114.518C202.623 117.87 199.535 120.597 195.725 120.597C191.927 120.597 188.827 117.87 188.827 114.518C188.827 111.177 191.929 108.475 195.725 108.475Z" fill="#5B7083"/>
<path d="M177.41 0.00122308C171.116 0.0275059 165.106 0.516868 159.818 1.37044C144.238 3.87982 141.41 9.13014 141.41 18.8147V31.6045H178.226V35.8673H127.592C116.892 35.8673 107.522 41.7296 104.592 52.8811C101.211 65.6633 101.062 73.6395 104.592 86.9862C107.209 96.9212 113.46 104 124.159 104H136.818V88.6683C136.818 77.592 147.332 67.8223 159.818 67.8223H196.592C206.828 67.8223 215 60.1402 215 50.7697V18.8135C215 9.71963 206.583 2.88733 196.592 1.36918C190.266 0.410485 183.705 -0.0263113 177.41 0.00122308ZM157.5 10.2866C161.304 10.2866 164.408 13.1639 164.408 16.7009C164.408 20.2253 161.302 23.0763 157.5 23.0763C153.684 23.0763 150.592 20.2265 150.592 16.7009C150.592 13.1639 153.684 10.2866 157.5 10.2866Z" fill="#1976D2"/>
<defs>
<linearGradient id="paint0_linear" x1="13" y1="182.5" x2="369" y2="177" gradientUnits="userSpaceOnUse">
<stop stop-color="#1976D2"/>
<stop offset="0.9999" stop-color="#212936"/>
<stop offset="1" stop-color="#1976D2" stop-opacity="0"/>
</linearGradient>
</defs>
</svg>
