<svg width="371" height="335" viewBox="0 0 371 335" fill="none" xmlns="http://www.w3.org/2000/svg">
<g clip-path="url(#clip0)">
<path d="M58.9155 0L34.3834 53.3347H39.3357V96.8272H14.3782L0 128.086L178.156 229.898L237.072 101.812L58.9155 0Z" fill="#F2F2F2"/>
<path d="M326.871 34.6949H53.7358V187.436H326.871V34.6949Z" fill="#3F3D56"/>
<path opacity="0.3" d="M293.658 89.5782H92.0583V90.096H293.658V89.5782Z" fill="#1976D2"/>
<path opacity="0.3" d="M293.89 102.522H92.2905V103.04H293.89V102.522Z" fill="#1976D2"/>
<path opacity="0.3" d="M293.89 128.411H92.2905V128.929H293.89V128.411Z" fill="#1976D2"/>
<path opacity="0.3" d="M293.89 139.802H92.2905V140.319H293.89V139.802Z" fill="#1976D2"/>
<path opacity="0.3" d="M293.89 115.467H92.2905V115.984H293.89V115.467Z" fill="#1976D2"/>
<path d="M263.232 335C310.95 335 349.632 331.059 349.632 326.198C349.632 321.337 310.95 317.396 263.232 317.396C215.515 317.396 176.833 321.337 176.833 326.198C176.833 331.059 215.515 335 263.232 335Z" fill="#3F3D56"/>
<path d="M97.8837 140.177L97.2427 139.427L127.251 107.547L153.703 128.755L175.095 102.32L184.475 111.207L209.99 94.1426L238.332 115.376L282.814 87.1734L283.273 88.0733L238.291 116.593L209.962 95.3691L184.381 112.477L175.18 103.76L153.836 130.137L127.334 108.889L97.8837 140.177Z" fill="#1976D2"/>
<path d="M184.3 308.51C186.483 317.506 193.961 323.077 193.961 323.077C193.961 323.077 197.899 314.063 195.716 305.068C193.533 296.072 186.055 290.501 186.055 290.501C186.055 290.501 182.116 299.514 184.3 308.51Z" fill="#3F3D56"/>
<path d="M187.508 306.577C193.498 313.077 194.23 323.069 194.23 323.069C194.23 323.069 185.249 322.523 179.258 316.023C173.267 309.522 172.536 299.53 172.536 299.53C172.536 299.53 181.517 300.076 187.508 306.577Z" fill="#1976D2"/>
<path opacity="0.4" d="M355.439 45.0502C364.033 45.0502 371 37.2845 371 27.705C371 18.1255 364.033 10.3598 355.439 10.3598C346.844 10.3598 339.877 18.1255 339.877 27.705C339.877 37.2845 346.844 45.0502 355.439 45.0502Z" fill="#1976D2"/>
<path opacity="0.4" d="M326.639 48.1568C332.668 48.1568 337.555 42.7093 337.555 35.9893C337.555 29.2694 332.668 23.8218 326.639 23.8218C320.61 23.8218 315.723 29.2694 315.723 35.9893C315.723 42.7093 320.61 48.1568 326.639 48.1568Z" fill="#1976D2"/>
<path opacity="0.4" d="M313.168 265.619C316.375 265.619 318.974 262.721 318.974 259.147C318.974 255.573 316.375 252.675 313.168 252.675C309.961 252.675 307.361 255.573 307.361 259.147C307.361 262.721 309.961 265.619 313.168 265.619Z" fill="#1976D2"/>
<path opacity="0.4" d="M214.226 297.721C216.663 297.721 218.639 295.519 218.639 292.802C218.639 290.085 216.663 287.883 214.226 287.883C211.789 287.883 209.813 290.085 209.813 292.802C209.813 295.519 211.789 297.721 214.226 297.721Z" fill="#1976D2"/>
<path opacity="0.4" d="M199.362 234.035C202.568 234.035 205.168 231.138 205.168 227.563C205.168 223.989 202.568 221.091 199.362 221.091C196.155 221.091 193.555 223.989 193.555 227.563C193.555 231.138 196.155 234.035 199.362 234.035Z" fill="#1976D2"/>
<path d="M282.51 96.5681C285.845 96.5681 288.549 93.5545 288.549 89.8371C288.549 86.1197 285.845 83.1061 282.51 83.1061C279.175 83.1061 276.471 86.1197 276.471 89.8371C276.471 93.5545 279.175 96.5681 282.51 96.5681Z" fill="#1976D2"/>
<path d="M243.273 211.754L238.154 212.388C238.154 212.388 235.879 223.8 238.154 239.016C240.429 254.232 243.273 269.448 243.273 269.448C243.273 269.448 245.549 318.901 246.686 319.535C247.824 320.169 258.062 323.973 258.631 320.169C259.2 316.365 259.2 229.506 259.2 229.506L267.163 271.35C267.163 271.35 268.301 323.973 270.576 323.973C272.851 323.973 280.245 323.339 280.245 318.901C280.245 314.463 281.952 256.134 281.952 256.134C281.952 256.134 281.383 213.022 279.108 211.754C276.833 210.486 243.273 211.754 243.273 211.754Z" fill="#2F2E41"/>
<path d="M247.824 317.633C247.824 317.633 242.704 316.999 241.567 317.633C240.429 318.267 238.723 322.705 241.567 325.241C244.411 327.777 251.805 331.581 254.08 331.581C255.658 331.503 257.206 331.072 258.631 330.313L257.493 319.535L247.824 317.633Z" fill="#2F2E41"/>
<path d="M270.576 320.803L271.144 329.679C271.144 329.679 278.539 330.947 279.108 329.679C279.676 328.411 285.365 325.241 285.933 324.607C286.502 323.973 287.071 316.999 283.658 316.365C280.245 315.731 279.108 317.633 279.108 317.633L270.576 320.803Z" fill="#2F2E41"/>
<path d="M222.797 158.497C222.797 158.497 209.145 173.079 210.852 180.687C212.558 188.295 226.209 210.486 226.209 210.486C226.209 210.486 239.292 218.094 240.998 210.486C242.705 202.877 231.897 204.779 231.897 204.779L223.365 181.955L233.035 166.739L222.797 158.497Z" fill="#FFB8B8"/>
<path d="M283.794 136.312C283.794 136.312 296.23 127.398 295.942 121.275C295.654 115.151 288.157 95.8419 288.157 95.8419C288.157 95.8419 282.292 82.2509 279.961 87.8053C277.63 93.3597 283.025 99.2721 283.025 99.2721L286.508 118.213L277.043 128.278L283.794 136.312Z" fill="#FFB8B8"/>
<path d="M252.943 123.627C258.598 123.627 263.181 118.517 263.181 112.215C263.181 105.912 258.598 100.802 252.943 100.802C247.288 100.802 242.705 105.912 242.705 112.215C242.705 118.517 247.288 123.627 252.943 123.627Z" fill="#FFB8B8"/>
<path d="M247.824 119.189L249.53 131.235L262.044 128.699C262.044 128.699 261.475 116.653 261.475 115.385C261.475 114.117 247.824 119.189 247.824 119.189Z" fill="#FFB8B8"/>
<path d="M247.255 131.235C247.255 131.235 261.475 127.431 263.181 128.699C264.888 129.967 273.42 131.235 273.42 131.235L283.089 147.719L280.245 168.641C280.245 168.641 279.677 202.244 280.814 207.95C281.952 213.656 288.209 214.29 275.126 215.558C262.044 216.826 259.769 214.924 250.668 217.46C241.567 219.996 234.173 216.192 236.448 213.656C238.723 211.12 242.705 170.543 238.154 166.739C233.604 162.935 231.897 143.281 231.897 143.281C231.897 143.281 247.255 134.405 247.255 131.235Z" fill="#D0CDE1"/>
<path d="M271.713 133.137L273.42 131.235L276.832 127.431C276.832 127.431 287.924 132.82 287.355 134.722C286.786 136.624 283.089 147.719 283.089 147.719L277.97 149.621L271.713 133.137Z" fill="#D0CDE1"/>
<path d="M238.723 144.549L231.897 143.281C231.897 143.281 226.778 149.621 225.072 152.157C223.365 154.693 219.953 161.033 219.953 161.033L231.897 170.543L240.998 159.765L238.723 144.549Z" fill="#D0CDE1"/>
<path d="M256.516 98.3886L256.411 97.4744C255.715 97.47 255.023 97.5912 254.362 97.8333C254.294 97.282 254.338 96.7209 254.489 96.1905C253.817 96.383 253.177 96.6933 252.592 97.1096L252.178 95.4412L246.492 98.5648C244.451 99.686 242.299 100.918 241.132 103.096C239.831 105.523 240.058 108.643 240.947 111.292C241.836 113.94 243.314 116.284 244.498 118.784C244.948 119.86 245.488 120.885 246.112 121.846C248.258 124.828 252.436 125.431 255.463 123.631C256.614 123.013 257.532 121.96 258.053 120.659C258.274 119.852 258.447 119.03 258.571 118.198C258.945 116.494 259.38 112.976 260.622 111.898C261.168 111.423 262.252 112.996 262.705 112.412C263.868 110.91 263.624 108.595 262.901 106.782C262.208 104.961 261.397 103.198 260.475 101.507C260.085 100.827 256.503 98.279 256.516 98.3886Z" fill="#2F2E41"/>
<path d="M35.6196 59.5477H5.89062V92.6848H35.6196V59.5477Z" fill="#3F3D56"/>
</g>
<defs>
<clipPath id="clip0">
<rect width="371" height="335" fill="white"/>
</clipPath>
</defs>
</svg>
