<svg width="264" height="264" viewBox="0 0 264 264" fill="none" xmlns="http://www.w3.org/2000/svg">
<g clip-path="url(#clip0)">
<path d="M1.47981 59.2388C0.962856 59.4014 0.52468 59.7864 0.261407 60.3096C-0.00186535 60.8327 -0.0687415 61.4512 0.0754521 62.0294L33.9372 197.197C34.0826 197.775 34.4271 198.265 34.8951 198.559C35.3632 198.853 35.9165 198.928 36.4338 198.767L161.265 159.698C161.782 159.536 162.22 159.15 162.484 158.627C162.747 158.104 162.814 157.486 162.67 156.908L128.808 21.7397C128.663 21.1618 128.318 20.6721 127.85 20.3778C127.382 20.0836 126.829 20.0088 126.311 20.17L1.47981 59.2388Z" fill="#E6E6E6"/>
<path d="M38.0019 192.384L156.958 155.154L124.742 26.5527L5.78516 63.7829L38.0019 192.384Z" fill="white"/>
<path d="M21.513 80.9549C20.7193 81.2032 20.3921 82.6768 20.7836 84.2395C21.1751 85.8022 22.1393 86.8715 22.933 86.6232L77.1873 69.643C77.981 69.3946 78.3082 67.9211 77.9167 66.3584C77.5252 64.7957 76.561 63.7264 75.7673 63.9747L21.513 80.9549Z" fill="#E6E6E6"/>
<path d="M25.8821 98.3958C25.0885 98.6442 24.7613 100.118 25.1527 101.68C25.5442 103.243 26.5085 104.312 27.3021 104.064L81.5564 87.084C82.3501 86.8356 82.6773 85.362 82.2858 83.7993C81.8944 82.2366 80.9301 81.1673 80.1365 81.4157L25.8821 98.3958Z" fill="#E6E6E6"/>
<path d="M30.201 115.636C29.4073 115.884 29.0801 117.358 29.4716 118.92C29.8631 120.483 30.8273 121.552 31.621 121.304L85.8753 104.324C86.669 104.075 86.9962 102.602 86.6047 101.039C86.2132 99.4765 85.249 98.4072 84.4553 98.6556L30.201 115.636Z" fill="#E6E6E6"/>
<path d="M34.5701 133.077C33.7765 133.325 33.4492 134.798 33.8407 136.361C34.2322 137.924 35.1965 138.993 35.9901 138.745L90.2445 121.765C91.0381 121.516 91.3653 120.043 90.9739 118.48C90.5824 116.917 89.6181 115.848 88.8245 116.096L34.5701 133.077Z" fill="#E6E6E6"/>
<path d="M103.301 55.5586C102.967 55.6625 102.655 55.8388 102.383 56.0774C102.111 56.316 101.883 56.6123 101.713 56.9493C101.544 57.2863 101.435 57.6575 101.393 58.0415C101.352 58.4255 101.379 58.8148 101.472 59.1873C101.565 59.5597 101.723 59.908 101.937 60.2121C102.151 60.5163 102.416 60.7703 102.718 60.9597C103.02 61.1492 103.352 61.2703 103.696 61.3161C104.039 61.362 104.387 61.3317 104.721 61.2269L114.863 58.0526C115.536 57.8421 116.106 57.3417 116.448 56.6613C116.791 55.981 116.877 55.1765 116.689 54.4249C116.501 53.6732 116.053 53.0359 115.444 52.6532C114.835 52.2706 114.116 52.1738 113.443 52.3843L103.301 55.5586Z" fill="#E6E6E6"/>
<path d="M107.585 72.6615C107.252 72.7654 106.94 72.9417 106.668 73.1803C106.395 73.4189 106.168 73.7152 105.998 74.0522C105.828 74.3892 105.72 74.7604 105.678 75.1444C105.637 75.5284 105.663 75.9177 105.757 76.2902C105.85 76.6627 106.008 77.0109 106.222 77.315C106.436 77.6192 106.701 77.8732 107.003 78.0626C107.304 78.2521 107.637 78.3732 107.98 78.419C108.324 78.4649 108.672 78.4346 109.005 78.3298L119.148 75.1555C119.82 74.945 120.39 74.4446 120.733 73.7643C121.075 73.0839 121.162 72.2794 120.973 71.5278C120.785 70.7761 120.337 70.1388 119.729 69.7561C119.12 69.3735 118.4 69.2767 117.728 69.4872L107.585 72.6615Z" fill="#E6E6E6"/>
<path d="M111.87 89.7644C111.537 89.8686 111.226 90.0451 110.954 90.2838C110.682 90.5225 110.454 90.8188 110.285 91.1556C110.115 91.4925 110.007 91.8634 109.966 92.2471C109.924 92.6309 109.951 93.0199 110.044 93.3921C110.138 93.7643 110.295 94.1123 110.509 94.4163C110.723 94.7203 110.988 94.9743 111.289 95.1637C111.59 95.3532 111.922 95.4745 112.266 95.5207C112.609 95.5668 112.957 95.5369 113.29 95.4327L123.432 92.2584C124.105 92.0479 124.675 91.5474 125.018 90.8671C125.36 90.1868 125.446 89.3823 125.258 88.6306C125.07 87.8789 124.622 87.2417 124.013 86.859C123.405 86.4763 122.685 86.3796 122.012 86.59L111.87 89.7644Z" fill="#E6E6E6"/>
<path d="M116.155 106.867C115.483 107.078 114.914 107.579 114.572 108.259C114.23 108.939 114.144 109.743 114.332 110.494C114.52 111.245 114.967 111.882 115.575 112.265C116.183 112.648 116.902 112.745 117.575 112.536L127.717 109.361C128.389 109.15 128.958 108.649 129.3 107.969C129.642 107.289 129.728 106.485 129.54 105.734C129.352 104.983 128.905 104.346 128.297 103.964C127.689 103.581 126.969 103.483 126.297 103.693L116.155 106.867Z" fill="#E6E6E6"/>
<path d="M120.248 136.512C119.823 136.645 119.426 136.869 119.079 137.173C118.732 137.477 118.442 137.855 118.226 138.284C118.009 138.714 117.871 139.187 117.818 139.676C117.765 140.165 117.799 140.661 117.918 141.136C118.037 141.611 118.239 142.054 118.511 142.442C118.783 142.829 119.121 143.153 119.506 143.395C119.89 143.636 120.314 143.79 120.751 143.849C121.189 143.907 121.633 143.868 122.058 143.735L134.981 139.69C135.838 139.422 136.565 138.784 137.001 137.917C137.437 137.051 137.548 136.025 137.308 135.068C137.068 134.11 136.497 133.298 135.722 132.81C134.946 132.323 134.029 132.199 133.172 132.468L120.248 136.512Z" fill="#63A1FF"/>
<path d="M133.549 121.926L37.9146 151.857L38.1526 152.807L133.787 122.876L133.549 121.926Z" fill="#E6E6E6"/>
<path d="M229.612 249.672L221.942 251.745L211.14 219.664L222.46 216.605L229.612 249.672Z" fill="#A0616A"/>
<path d="M208.709 264L208.657 263.76C208.049 260.936 208.468 257.958 209.823 255.478C211.177 252.999 213.356 251.222 215.882 250.536L230.888 246.481L233.244 257.371L208.709 264Z" fill="#2F2E41"/>
<path d="M195.657 255.512L187.767 255.512L184.013 221.492L195.659 221.493L195.657 255.512Z" fill="#A0616A"/>
<path d="M197.569 263.949L172.327 263.948V263.701C172.327 260.795 173.36 258.009 175.198 255.954C177.037 253.899 179.53 252.745 182.13 252.745H182.13L197.569 252.746L197.569 263.949Z" fill="#2F2E41"/>
<path d="M184.006 242.231L176.345 140.171L208.061 133.636L208.186 133.611L217.47 140.281L214.239 177.842L229.115 236.402L216.27 240.181L201.369 185.869L197.959 169.354L196.212 190.815L197.509 243.74L184.006 242.231Z" fill="#2F2E41"/>
<path d="M175.362 142.486L175.278 142.367L186.238 50.1311L186.252 50.0103L186.33 49.9239C186.491 49.7433 190.331 45.502 194.281 45.502C194.852 45.502 195.395 45.4858 195.916 45.4711C198.938 45.3833 201.326 45.313 204.163 48.485C207.054 51.7161 216.487 63.5148 216.487 79.6744C216.487 95.3154 217.761 143.923 217.774 144.411L217.792 145.098L217.277 144.723C217.15 144.632 204.463 135.603 193.823 143.996C190.498 146.62 187.511 147.539 184.957 147.539C179.012 147.539 175.413 142.558 175.362 142.486Z" fill="#63A1FF"/>
<path d="M200.186 37.8914C207.847 33.2106 210.663 22.4745 206.475 13.9117C202.287 5.34888 192.682 2.20193 185.021 6.88278C177.36 11.5636 174.544 22.2997 178.732 30.8625C182.92 39.4253 192.525 42.5723 200.186 37.8914Z" fill="#A0616A"/>
<path d="M168.403 162.308C169.151 161.66 169.763 160.837 170.195 159.896C170.628 158.956 170.871 157.92 170.906 156.863C170.942 155.807 170.77 154.754 170.403 153.779C170.035 152.805 169.481 151.932 168.779 151.223L177.756 127.554L166.002 129.972L159.278 152.078C158.291 153.475 157.796 155.228 157.887 157.006C157.979 158.784 158.651 160.462 159.775 161.723C160.9 162.984 162.4 163.74 163.99 163.848C165.58 163.956 167.15 163.408 168.403 162.308H168.403Z" fill="#A0616A"/>
<path d="M159.729 143.896L162.62 137.075C162.442 136.955 162.294 136.784 162.193 136.58C159.493 131.348 175.807 87.8999 176.895 85.018C176.729 83.4506 175.016 66.8408 176.268 61.2421C177.742 54.6514 180.769 51.5798 186.389 50.9714C192.587 50.3208 194.259 59.7281 194.275 59.8236L194.281 84.0078L187.168 111.847L170.946 148.835L159.729 143.896Z" fill="#63A1FF"/>
<path d="M194.625 29.0441C192.73 29.3197 191.3 27.1525 190.637 25.1492C189.974 23.1458 189.469 20.8135 187.821 19.7314C185.57 18.2529 182.69 20.0311 180.116 19.5433C177.209 18.9925 175.319 15.5489 175.171 12.2575C175.023 8.96604 176.195 5.80041 177.344 2.76576L177.746 6.53715C177.692 5.25893 177.933 3.98669 178.445 2.84213C178.957 1.69757 179.723 0.718972 180.67 -6.10352e-05L180.153 5.53388C180.477 2.43363 183.465 0.0313512 186.198 0.67382L186.116 3.97113C189.474 3.52489 192.861 3.07801 196.228 3.41799C199.596 3.75796 202.987 4.94886 205.539 7.42771C209.357 11.1357 210.751 17.2413 210.283 22.8703C209.815 28.4992 207.736 33.7872 205.57 38.8955C205.025 40.1807 204.271 41.631 203.006 41.7947C201.871 41.9419 200.831 40.8806 200.478 39.6651C200.125 38.4495 200.298 37.129 200.509 35.873C200.828 33.9757 201.231 32.0364 200.931 30.1352C200.63 28.234 199.407 26.3552 197.692 26.1222C195.977 25.8892 194.223 28.0799 195.047 29.7764L194.625 29.0441Z" fill="#2F2E41"/>
<path d="M263.831 263.989H150.068V262.95H264L263.831 263.989Z" fill="#3F3D56"/>
</g>
<defs>
<clipPath id="clip0">
<rect width="264" height="264" fill="white"/>
</clipPath>
</defs>
</svg>
