<svg width="264" height="264" viewBox="0 0 264 264" fill="none" xmlns="http://www.w3.org/2000/svg">
<g clip-path="url(#clip0)">
<path d="M210.267 187.568C210.267 187.568 242.927 189.374 235.32 200.367C227.712 211.36 207.723 193.918 207.723 193.918L210.267 187.568Z" fill="#FFB8B8"/>
<path d="M150.079 82.8596L156.727 84.6366C156.727 84.6366 160.605 97.0758 163.375 108.33C166.145 119.585 171.684 153.348 171.684 153.348L214.633 185.532L209.511 197.785L152.295 173.674L139.553 120.177L150.079 82.8596Z" fill="#575A89"/>
<path opacity="0.2" d="M156.334 104.939L153.856 160.418L159.026 176.913L143.881 165.037L156.334 104.939Z" fill="black"/>
<path d="M165.314 203.401C165.314 203.401 172.516 224.133 173.624 238.349C174.731 252.566 175.839 263.82 175.839 263.82H142.046L135.398 253.158V263.82H96.0654C96.0654 263.82 84.9856 225.318 89.4175 220.579C93.8494 215.84 135.952 195.701 135.952 195.701L165.314 203.401Z" fill="#2F2E41"/>
<path d="M229.705 263.28H34.1611V264H229.705V263.28Z" fill="#3F3D56"/>
<path d="M122.934 60.3506C134.56 60.3506 143.985 50.273 143.985 37.8416C143.985 25.4103 134.56 15.3326 122.934 15.3326C111.307 15.3326 101.882 25.4103 101.882 37.8416C101.882 50.273 111.307 60.3506 122.934 60.3506Z" fill="#FFB8B8"/>
<path d="M106.868 47.3191L105.207 73.3821L126.258 103.592L136.784 75.1591C136.784 75.1591 127.366 68.6434 132.906 55.0195L106.868 47.3191Z" fill="#FFB8B8"/>
<path d="M168.359 208.435C168.359 213.769 154.51 222.06 154.51 222.06V225.022L148.97 227.983L136.783 201.922L133.461 230.351C133.461 230.351 109.084 234.501 101.329 230.351C93.5713 226.206 89.6941 227.983 78.6144 223.838C67.5347 219.692 83.047 164.01 83.047 164.01L71.9673 78.1208L96.173 65.1801L97.4485 64.4963L100.777 63.8414L105.879 62.8337L122.933 75.1591L124.306 82.8603L125.151 87.5997L129.58 82.2665L132.926 70.5025L156.728 84.638L150.08 141.5C150.08 141.5 168.359 203.106 168.359 208.435Z" fill="#575A89"/>
<path d="M86.9246 226.799C86.9246 226.799 112.408 248.715 100.22 252.862C88.0326 257.008 81.3848 230.353 81.3848 230.353L86.9246 226.799Z" fill="#FFB8B8"/>
<path d="M77.5071 79.3055L71.9673 78.1208C71.9673 78.1208 63.6575 82.8596 63.1035 92.3371C62.5495 101.815 55.3477 168.157 55.3477 168.157L78.6151 235.091L97.4507 227.391L79.1691 164.603L93.0188 110.107L77.5071 79.3055Z" fill="#575A89"/>
<path d="M125.37 97.3821C126.485 97.3821 127.389 96.4154 127.389 95.2229C127.389 94.0304 126.485 93.0637 125.37 93.0637C124.255 93.0637 123.351 94.0304 123.351 95.2229C123.351 96.4154 124.255 97.3821 125.37 97.3821Z" fill="#2F2E41"/>
<path d="M125.37 111.417C126.485 111.417 127.389 110.45 127.389 109.258C127.389 108.065 126.485 107.099 125.37 107.099C124.255 107.099 123.351 108.065 123.351 109.258C123.351 110.45 124.255 111.417 125.37 111.417Z" fill="#2F2E41"/>
<path d="M136.813 203.902C137.929 203.902 138.833 202.936 138.833 201.743C138.833 200.551 137.929 199.584 136.813 199.584C135.698 199.584 134.794 200.551 134.794 201.743C134.794 202.936 135.698 203.902 136.813 203.902Z" fill="#2F2E41"/>
<path d="M105.16 14.7822L101.269 13.1164C101.269 13.1164 109.406 3.53812 120.726 4.37104L117.542 0.622988C117.542 0.622988 125.325 -2.70856 132.401 6.03681C136.12 10.634 140.424 16.0379 143.106 22.1252H147.274L145.535 26.2203L151.622 30.3153L145.374 29.5797C145.746 31.8222 145.803 34.1116 145.543 36.3721C145.275 38.6334 144.196 40.6948 142.533 42.1214C142.533 42.1214 137.707 31.4401 137.707 29.7743V33.9387C137.707 33.9387 133.816 30.1907 133.816 27.6921L131.693 30.6072H117.542L119.665 26.8592L111.528 28.1085L114.712 23.5276L102.114 42.4439C102.114 42.4439 94.9011 21.0289 105.16 14.7822Z" fill="#2F2E41"/>
<path d="M230.344 174.011C248.932 174.011 264 157.9 264 138.025C264 118.15 248.932 102.038 230.344 102.038C211.756 102.038 196.688 118.15 196.688 138.025C196.688 157.9 211.756 174.011 230.344 174.011Z" fill="#3F3D56"/>
<path opacity="0.1" d="M230.344 168.973C246.33 168.973 259.288 155.117 259.288 138.025C259.288 120.932 246.33 107.076 230.344 107.076C214.358 107.076 201.399 120.932 201.399 138.025C201.399 155.117 214.358 168.973 230.344 168.973Z" fill="black"/>
<path d="M228.956 156.287V151.783C226.827 151.738 224.624 150.935 223.339 149.82L224.22 146.832C225.747 148.056 227.599 148.728 229.507 148.75C232.114 148.75 233.877 146.921 233.877 144.379C233.877 141.926 232.445 140.41 229.728 139.072C225.982 137.288 223.669 135.236 223.669 131.357C223.669 127.655 225.836 124.845 229.214 124.176V119.672H231.49V123.998C233.187 124.023 234.843 124.564 236.263 125.559L235.345 128.502C233.983 127.505 232.369 126.976 230.719 126.986C227.892 126.986 226.827 129.037 226.827 130.821C226.827 133.14 228.185 134.3 231.38 135.906C235.162 137.779 237.071 140.098 237.071 144.067C237.071 147.59 235.052 150.891 231.27 151.649V156.287H228.956Z" fill="#63A1FF"/>
<path opacity="0.2" d="M84.1426 181.685L97.6035 226.645L86.8334 179.862L84.1426 181.685Z" fill="black"/>
<path d="M15.5133 93.8542H6.96905C6.59665 93.8538 6.23963 93.6954 5.97631 93.4138C5.71299 93.1323 5.56487 92.7505 5.56445 92.3524V79.2197C5.56487 78.8216 5.71299 78.4398 5.97631 78.1583C6.23963 77.8767 6.59665 77.7183 6.96905 77.7179H15.5133C15.8857 77.7183 16.2427 77.8767 16.506 78.1583C16.7694 78.4398 16.9175 78.8216 16.9179 79.2197V92.3524C16.9175 92.7505 16.7694 93.1323 16.506 93.4138C16.2427 93.6954 15.8857 93.8538 15.5133 93.8542ZM6.96905 78.4376C6.77512 78.4379 6.58921 78.5204 6.45208 78.667C6.31496 78.8136 6.23782 79.0124 6.23758 79.2197V92.3524C6.23782 92.5597 6.31496 92.7585 6.45208 92.9051C6.58921 93.0517 6.77512 93.1342 6.96905 93.1345H15.5133C15.7072 93.1342 15.8931 93.0517 16.0303 92.9051C16.1674 92.7585 16.2445 92.5597 16.2448 92.3524V79.2197C16.2445 79.0124 16.1674 78.8136 16.0303 78.667C15.8931 78.5204 15.7072 78.4379 15.5133 78.4376H6.96905Z" fill="#3F3D56"/>
<path d="M31.1197 93.8542H23.4037C22.9215 93.8536 22.4592 93.6485 22.1183 93.284C21.7773 92.9194 21.5855 92.4251 21.585 91.9096V65.3878C21.5855 64.8722 21.7773 64.3779 22.1183 64.0134C22.4592 63.6488 22.9215 63.4437 23.4037 63.4431H31.1197C31.6019 63.4437 32.0641 63.6488 32.4051 64.0134C32.746 64.3779 32.9378 64.8722 32.9384 65.3878V91.9096C32.9378 92.4251 32.746 92.9194 32.4051 93.284C32.0641 93.6485 31.6019 93.8536 31.1197 93.8542ZM23.4037 64.1628C23.1 64.1632 22.8088 64.2924 22.594 64.522C22.3792 64.7516 22.2584 65.063 22.2581 65.3877V91.9096C22.2584 92.2343 22.3792 92.5457 22.594 92.7753C22.8088 93.005 23.1 93.1341 23.4037 93.1345H31.1197C31.4234 93.1341 31.7146 93.005 31.9294 92.7753C32.1441 92.5457 32.2649 92.2343 32.2653 91.9096V65.3878C32.2649 65.063 32.1441 64.7516 31.9294 64.522C31.7146 64.2924 31.4234 64.1632 31.1197 64.1628L23.4037 64.1628Z" fill="#3F3D56"/>
<path d="M46.8423 93.8542H39.7221C39.161 93.8535 38.6229 93.6148 38.2261 93.1905C37.8293 92.7663 37.6061 92.191 37.6055 91.591V52.5736C37.6061 51.9736 37.8293 51.3983 38.2261 50.9741C38.6229 50.5498 39.161 50.3111 39.7221 50.3104H46.8423C47.4034 50.3111 47.9414 50.5498 48.3383 50.9741C48.7351 51.3983 48.9583 51.9736 48.9589 52.5736V91.591C48.9583 92.191 48.7351 92.7663 48.3383 93.1905C47.9414 93.6148 47.4034 93.8535 46.8423 93.8542ZM39.7221 51.0302C39.3394 51.0306 38.9725 51.1934 38.7019 51.4827C38.4313 51.7721 38.279 52.1644 38.2786 52.5736V91.591C38.279 92.0002 38.4313 92.3925 38.7019 92.6819C38.9725 92.9712 39.3394 93.134 39.7221 93.1344H46.8423C47.225 93.134 47.5919 92.9712 47.8625 92.6819C48.1331 92.3925 48.2854 92.0002 48.2858 91.591V52.5736C48.2854 52.1644 48.1331 51.7721 47.8625 51.4827C47.5919 51.1934 47.225 51.0306 46.8423 51.0302H39.7221Z" fill="#3F3D56"/>
<path d="M14.4453 80.2189H8.03711V91.3531H14.4453V80.2189Z" fill="#63A1FF"/>
<path d="M30.4658 66.0869H24.0576V91.3531H30.4658V66.0869Z" fill="#63A1FF"/>
<path d="M46.4863 52.9543H40.0781V91.3532H46.4863V52.9543Z" fill="#63A1FF"/>
<path d="M243.336 52.4696H198.573C198.529 52.4696 198.485 52.4603 198.444 52.4422C198.403 52.4241 198.366 52.3976 198.335 52.3642C198.304 52.3308 198.279 52.2911 198.262 52.2475C198.245 52.2038 198.236 52.157 198.236 52.1097V3.52783C198.236 3.43239 198.272 3.34086 198.335 3.27337C198.398 3.20588 198.484 3.16797 198.573 3.16797C198.662 3.16797 198.748 3.20588 198.811 3.27337C198.874 3.34086 198.909 3.43239 198.909 3.52783V51.7499H243.336C243.425 51.7499 243.511 51.7878 243.574 51.8553C243.637 51.9228 243.672 52.0143 243.672 52.1097C243.672 52.2052 243.637 52.2967 243.574 52.3642C243.511 52.4317 243.425 52.4696 243.336 52.4696Z" fill="#3F3D56"/>
<path d="M53.5137 98.8922H0.336564C0.292363 98.8922 0.248593 98.8829 0.207754 98.8649C0.166915 98.8468 0.129807 98.8203 0.0985514 98.7869C0.0672962 98.7534 0.0425055 98.7138 0.0255956 98.6701C0.00868579 98.6264 -1.14855e-05 98.5796 1.13833e-08 98.5324V42.0334C1.13833e-08 41.938 0.0354591 41.8465 0.0985771 41.779C0.161695 41.7115 0.247302 41.6736 0.336564 41.6736C0.425826 41.6736 0.511433 41.7115 0.574551 41.779C0.637669 41.8465 0.673128 41.938 0.673128 42.0334V98.1725H53.5137C53.6029 98.1725 53.6885 98.2104 53.7517 98.2779C53.8148 98.3454 53.8502 98.4369 53.8502 98.5324C53.8502 98.6278 53.8148 98.7193 53.7517 98.7868C53.6885 98.8543 53.6029 98.8922 53.5137 98.8922Z" fill="#3F3D56"/>
<path d="M214.02 47.9594H205.476C205.104 47.959 204.747 47.8007 204.483 47.5191C204.22 47.2376 204.072 46.8558 204.071 46.4576V33.325C204.072 32.9268 204.22 32.545 204.483 32.2634C204.747 31.9819 205.104 31.8235 205.476 31.8231H214.02C214.393 31.8236 214.75 31.982 215.013 32.2635C215.276 32.5451 215.424 32.9268 215.425 33.325V46.4576C215.424 46.8558 215.276 47.2375 215.013 47.519C214.75 47.8006 214.393 47.959 214.02 47.9594ZM205.476 32.5429C205.282 32.5431 205.096 32.6256 204.959 32.7722C204.822 32.9188 204.745 33.1176 204.744 33.325V46.4576C204.745 46.665 204.822 46.8638 204.959 47.0104C205.096 47.157 205.282 47.2395 205.476 47.2397H214.02C214.214 47.2395 214.4 47.157 214.537 47.0104C214.674 46.8637 214.751 46.665 214.752 46.4576V33.325C214.751 33.1176 214.674 32.9188 214.537 32.7722C214.4 32.6256 214.214 32.5431 214.02 32.5429H205.476Z" fill="#3F3D56"/>
<path d="M231.518 47.9595H223.654C223.191 47.9589 222.748 47.7622 222.421 47.4124C222.094 47.0627 221.91 46.5885 221.909 46.0939V22.3069C221.91 21.8124 222.094 21.3382 222.421 20.9885C222.748 20.6388 223.191 20.4421 223.654 20.4415H231.518C231.981 20.4421 232.424 20.6388 232.751 20.9885C233.078 21.3382 233.262 21.8124 233.263 22.3069V46.0939C233.262 46.5885 233.078 47.0627 232.751 47.4124C232.424 47.7622 231.981 47.9589 231.518 47.9595ZM223.654 21.1613C223.37 21.1616 223.097 21.2824 222.896 21.4972C222.696 21.712 222.583 22.0032 222.582 22.3069V46.0939C222.583 46.3977 222.696 46.689 222.896 46.9038C223.097 47.1186 223.37 47.2394 223.654 47.2398H231.518C231.802 47.2394 232.074 47.1186 232.275 46.9038C232.476 46.689 232.589 46.3977 232.589 46.0939V22.3069C232.589 22.0032 232.476 21.712 232.275 21.4972C232.074 21.2824 231.802 21.1616 231.518 21.1613H223.654Z" fill="#3F3D56"/>
<path d="M212.798 34.4489H206.39V45.5831H212.798V34.4489Z" fill="#63A1FF"/>
<path d="M230.791 23.4291H224.382V44.972H230.791V23.4291Z" fill="#63A1FF"/>
<path d="M209.679 27.9987C211.352 27.9987 212.709 26.5486 212.709 24.7599C212.709 22.9712 211.352 21.5211 209.679 21.5211C208.007 21.5211 206.65 22.9712 206.65 24.7599C206.65 26.5486 208.007 27.9987 209.679 27.9987Z" fill="#63A1FF"/>
<path d="M227.517 15.7632C229.19 15.7632 230.546 14.3132 230.546 12.5244C230.546 10.7357 229.19 9.28564 227.517 9.28564C225.844 9.28564 224.488 10.7357 224.488 12.5244C224.488 14.3132 225.844 15.7632 227.517 15.7632Z" fill="#63A1FF"/>
</g>
<defs>
<clipPath id="clip0">
<rect width="264" height="264" fill="white"/>
</clipPath>
</defs>
</svg>
